<?xml version="1.0" encoding="utf-8"?>
<!-- Generator: Adobe Illustrator 26.3.1, SVG Export Plug-In . SVG Version: 6.00 Build 0)  -->
<svg version="1.1" id="Layer_1" xmlns="http://www.w3.org/2000/svg" xmlns:xlink="http://www.w3.org/1999/xlink" x="0px" y="0px"
	 viewBox="0 0 504 504" style="enable-background:new 0 0 504 504;" xml:space="preserve">
<path d="M252,0C112.8,0,0,112.8,0,252c0,139.2,112.8,252,252,252c139.2,0,252-112.8,252-252C504,112.8,391.2,0,252,0L252,0z
	 M252,92.9c21.7,0,39.3,17.6,39.3,39.3s-17.6,39.3-39.3,39.3s-39.3-17.6-39.3-39.3S230.3,92.9,252,92.9z M252,197.7
	c9.6,0,19.2,3.8,25.9,10.4c6.7,6.5,10.6,15.7,10.4,24.9v142.9c0.1,9.3-3.8,18.5-10.6,25.1c-6.9,6.6-16.6,10.3-26.3,10.2
	c-9.5-0.1-18.9-4-25.5-10.5c-6.6-6.5-10.4-15.6-10.3-24.7V232.9c-0.1-9.2,3.7-18.4,10.5-24.9C232.9,201.5,242.4,197.7,252,197.7z"/>
</svg>
